<?xml version="1.0" encoding="UTF-8" standalone="no"?>
<!DOCTYPE svg PUBLIC "-//W3C//DTD SVG 1.1//EN" "http://www.w3.org/Graphics/SVG/1.1/DTD/svg11.dtd">
<!-- Generated by Microsoft Visio, SVG Export export-images-flow.svg svg106 -->
<svg xmlns="http://www.w3.org/2000/svg" xmlns:xlink="http://www.w3.org/1999/xlink" xmlns:ev="http://www.w3.org/2001/xml-events"
		width="3.25in" height="4.55208in" viewBox="0 0 234 327.75" xml:space="preserve" color-interpolation-filters="sRGB"
		class="st10">
	<style type="text/css">
	<![CDATA[
		.st1 {fill:#dae8fc;stroke:#6c8ebf;stroke-linecap:butt;stroke-width:0.75}
		.st2 {fill:#000000;font-family:Calibri;font-size:1.16668em}
		.st3 {marker-end:url(#mrkr13-9);stroke:#000000;stroke-linecap:round;stroke-linejoin:round;stroke-width:2.25}
		.st4 {fill:#000000;fill-opacity:1;stroke:#000000;stroke-opacity:1;stroke-width:0.47169811320755}
		.st5 {fill:#ffffcc;stroke:#0080f0;stroke-linecap:butt;stroke-width:1.5}
		.st6 {fill:#ffffcc}
		.st7 {stroke:#0080f0;stroke-linecap:butt;stroke-width:1.5}
		.st8 {fill:#000000;font-family:Calibri;font-size:1.00001em}
		.st9 {fill:#000000;stroke:none;stroke-linecap:butt;stroke-width:6.375}
		.st10 {fill:none;fill-rule:evenodd;font-size:12px;overflow:visible;stroke-linecap:square;stroke-miterlimit:3}
	]]>
	</style>

	<defs id="Markers">
		<g id="lend13">
			<path d="M 3 1 L 0 0 L 3 -1 L 3 1 " style="stroke:none"/>
		</g>
		<marker id="mrkr13-9" class="st4" refX="-6.36" orient="auto" markerUnits="strokeWidth" overflow="visible">
			<use xlink:href="#lend13" transform="scale(-2.12,-2.12) "/>
		</marker>
	</defs>
	<g>
		<title>svg106</title>
		<g id="shape3-1" transform="translate(67.5,-257.271)">
			<title>rect8</title>
			<desc>VSDX</desc>
			<rect x="0" y="274.521" width="81" height="53.2286" class="st1"/>
			<text x="25.37" y="305.34" class="st2">VSDX</text>		</g>
		<g id="shape31-4" transform="translate(99,-257.271)">
			<title>Dynamic connector.31</title>
			<path d="M9 327.75 L9 363.71" class="st3"/>
		</g>
		<g id="group32-10" transform="translate(60.75,-45)">
			<title>Sheet.32</title>
			<desc>ZIP</desc>
			<g id="shape12-11">
				<title>path38</title>
				<path d="M0 165.75 L81.97 165.75 L114.75 198.15 L114.75 327.75 L0 327.75 L0 165.75 Z" class="st5"/>
			</g>
			<g id="shape13-13" transform="translate(81.9697,-129.6)">
				<title>path40</title>
				<path d="M0 295.35 L0 327.75 L32.78 327.75 L0 295.35 Z" class="st6"/>
				<path d="M0 295.35 L0 327.75 L32.78 327.75" class="st7"/>
			</g>
			<g id="shape32-16">
				<text x="124.49" y="247.31" class="st8">ZIP</text>			</g>
		</g>
		<g id="group33-18" transform="translate(70.3125,-148.022)">
			<title>Sheet.33</title>
			<g id="shape34-19" transform="translate(33.0469,-8.04381)">
				<title>Sheet.34</title>
				<path d="M13.22 326.28 L4.17 311.85 C4.01 311.59 3.72 311.43 3.41 311.43 C3.1 311.43 2.81 311.59 2.64 311.85 L0 316.1
							 L5.67 325.27 C6.15 326 6.25 326.91 5.95 327.72 L12.36 327.72 C12.88 327.75 13.33 327.35 13.36 326.82
							 C13.37 326.63 13.32 326.44 13.22 326.28 Z" class="st9"/>
			</g>
			<g id="shape35-21" transform="translate(5.65069,-8.02226)">
				<title>Sheet.35</title>
				<path d="M30.77 326.34 L16.39 302.95 C16.21 302.71 15.92 302.58 15.62 302.59 L15.5 302.59 L15.38 302.59 C15.08 302.58
							 14.79 302.71 14.61 302.95 L0.23 326.34 C0.03 326.63 0 327 0.16 327.31 C0.32 327.6 0.64 327.75 0.96 327.7
							 L30.04 327.7 C30.36 327.75 30.68 327.6 30.84 327.31 C31 327 30.97 326.63 30.77 326.34 ZM17.91 313.91
							 L15.62 315.94 L13.33 313.91 L9.55 316.2 L15.5 306.55 L21.29 315.94 L17.91 313.91 Z" class="st9"/>
			</g>
			<g id="shape36-23" transform="translate(10.575,-29.7422)">
				<title>Sheet.36</title>
				<ellipse cx="1.98281" cy="325.767" rx="1.98281" ry="1.98281" class="st9"/>
			</g>
			<g id="shape37-25">
				<title>Sheet.37</title>
				<path d="M3.97 323.78 L3.97 290.74 L48.91 290.74 L48.91 323.78 L3.97 323.78 ZM52.87 327.75 L52.87 286.77 L0 286.77
							 L0 327.75 L52.87 327.75 Z" class="st9"/>
			</g>
		</g>
		<g id="group38-27" transform="translate(69.75,-103.5)">
			<title>Sheet.38</title>
			<g id="shape39-28" transform="translate(33.0469,-8.04381)">
				<title>Sheet.39</title>
				<path d="M13.22 326.28 L4.17 311.85 C4.01 311.59 3.72 311.43 3.41 311.43 C3.1 311.43 2.81 311.59 2.64 311.85 L0 316.1
							 L5.67 325.27 C6.15 326 6.25 326.91 5.95 327.72 L12.36 327.72 C12.88 327.75 13.33 327.35 13.36 326.82
							 C13.37 326.63 13.32 326.44 13.22 326.28 Z" class="st9"/>
			</g>
			<g id="shape40-30" transform="translate(5.65069,-8.02226)">
				<title>Sheet.40</title>
				<path d="M30.77 326.34 L16.39 302.95 C16.21 302.71 15.92 302.58 15.62 302.59 L15.5 302.59 L15.38 302.59 C15.08 302.58
							 14.79 302.71 14.61 302.95 L0.23 326.34 C0.03 326.63 0 327 0.16 327.31 C0.32 327.6 0.64 327.75 0.96 327.7
							 L30.04 327.7 C30.36 327.75 30.68 327.6 30.84 327.31 C31 327 30.97 326.63 30.77 326.34 ZM17.91 313.91
							 L15.62 315.94 L13.33 313.91 L9.55 316.2 L15.5 306.55 L21.29 315.94 L17.91 313.91 Z" class="st9"/>
			</g>
			<g id="shape41-32" transform="translate(10.575,-29.7422)">
				<title>Sheet.41</title>
				<ellipse cx="1.98281" cy="325.767" rx="1.98281" ry="1.98281" class="st9"/>
			</g>
			<g id="shape42-34">
				<title>Sheet.42</title>
				<path d="M3.97 323.78 L3.97 290.74 L48.91 290.74 L48.91 323.78 L3.97 323.78 ZM52.87 327.75 L52.87 286.77 L0 286.77
							 L0 327.75 L52.87 327.75 Z" class="st9"/>
			</g>
		</g>
		<g id="group43-36" transform="translate(69.75,-58.5)">
			<title>Sheet.43</title>
			<g id="shape44-37" transform="translate(33.0469,-8.04381)">
				<title>Sheet.44</title>
				<path d="M13.22 326.28 L4.17 311.85 C4.01 311.59 3.72 311.43 3.41 311.43 C3.1 311.43 2.81 311.59 2.64 311.85 L0 316.1
							 L5.67 325.27 C6.15 326 6.25 326.91 5.95 327.72 L12.36 327.72 C12.88 327.75 13.33 327.35 13.36 326.82
							 C13.37 326.63 13.32 326.44 13.22 326.28 Z" class="st9"/>
			</g>
			<g id="shape45-39" transform="translate(5.65069,-8.02226)">
				<title>Sheet.45</title>
				<path d="M30.77 326.34 L16.39 302.95 C16.21 302.71 15.92 302.58 15.62 302.59 L15.5 302.59 L15.38 302.59 C15.08 302.58
							 14.79 302.71 14.61 302.95 L0.23 326.34 C0.03 326.63 0 327 0.16 327.31 C0.32 327.6 0.64 327.75 0.96 327.7
							 L30.04 327.7 C30.36 327.75 30.68 327.6 30.84 327.31 C31 327 30.97 326.63 30.77 326.34 ZM17.91 313.91
							 L15.62 315.94 L13.33 313.91 L9.55 316.2 L15.5 306.55 L21.29 315.94 L17.91 313.91 Z" class="st9"/>
			</g>
			<g id="shape46-41" transform="translate(10.575,-29.7422)">
				<title>Sheet.46</title>
				<ellipse cx="1.98281" cy="325.767" rx="1.98281" ry="1.98281" class="st9"/>
			</g>
			<g id="shape47-43">
				<title>Sheet.47</title>
				<path d="M3.97 323.78 L3.97 290.74 L48.91 290.74 L48.91 323.78 L3.97 323.78 ZM52.87 327.75 L52.87 286.77 L0 286.77
							 L0 327.75 L52.87 327.75 Z" class="st9"/>
			</g>
		</g>
	</g>
</svg>
