<?xml version="1.0" encoding="UTF-8" standalone="no"?>
<!DOCTYPE svg PUBLIC "-//W3C//DTD SVG 1.1//EN" "http://www.w3.org/Graphics/SVG/1.1/DTD/svg11.dtd">
<!-- Generated by Microsoft Visio, SVG Export chipher-flow.svg chipher-flow -->
<svg xmlns="http://www.w3.org/2000/svg" xmlns:xlink="http://www.w3.org/1999/xlink" xmlns:ev="http://www.w3.org/2001/xml-events"
		width="2.96875in" height="3.90625in" viewBox="0 0 213.75 281.25" xml:space="preserve" color-interpolation-filters="sRGB"
		class="st7">
	<style type="text/css">
	<![CDATA[
		.st1 {fill:#ccecff;stroke:#000000;stroke-linecap:butt;stroke-width:0.75}
		.st2 {fill:#000000;font-family:Arial;font-size:0.833336em}
		.st3 {fill:#f2f2f2;stroke:#000000;stroke-linecap:butt;stroke-width:0.75}
		.st4 {fill:#000000;font-family:Calibri;font-size:1.00001em}
		.st5 {stroke:#000000;stroke-linecap:round;stroke-linejoin:round;stroke-width:0.75}
		.st6 {fill:#ffc000;stroke:#000000;stroke-linecap:round;stroke-linejoin:round;stroke-width:0.24}
		.st7 {fill:none;fill-rule:evenodd;font-size:12px;overflow:visible;stroke-linecap:square;stroke-miterlimit:3}
	]]>
	</style>

	<g>
		<title>chipher-flow</title>
		<g id="group52-1" transform="translate(18,-22.5)">
			<title>Sheet.52</title>
			<g id="group49-2" transform="translate(90.4639,0)">
				<title>Sheet.49</title>
				<g id="shape15-3">
					<title>Sheet.15</title>
					<desc>Randomized Text</desc>
					<rect x="0" y="44.25" width="85.0361" height="237" class="st1"/>
					<text x="3.33" y="55.05" class="st2">Randomized Text</text>				</g>
				<g id="shape17-6" transform="translate(12.6649,-171)">
					<title>Sheet.17</title>
					<desc>Lorem</desc>
					<ellipse cx="30.1546" cy="262.5" rx="30.1546" ry="18.75" class="st3"/>
					<text x="15.98" y="266.1" class="st2">Lorem</text>				</g>
				<g id="shape19-9" transform="translate(15.0773,-117)">
					<title>Sheet.19</title>
					<desc>Ipsum Amet</desc>
					<rect x="0" y="243.75" width="60.3093" height="37.5" class="st3"/>
					<text x="3.48" y="266.1" class="st2">Ipsum Amet</text>				</g>
				<g id="shape22-12" transform="translate(15.0773,-60.75)">
					<title>Sheet.22</title>
					<desc>Sodex?</desc>
					<path d="M30.15 236.25 L60.31 258.75 L30.15 281.25 L0 258.75 L30.15 236.25 Z" class="st3"/>
					<text x="13.2" y="262.35" class="st2">Sodex?</text>				</g>
				<g id="shape24-15" transform="translate(17.4897,-12)">
					<title>Sheet.24</title>
					<desc>Doe</desc>
					<ellipse cx="30.1546" cy="262.5" rx="30.1546" ry="18.75" class="st3"/>
					<text x="20.31" y="266.1" class="st4">Doe</text>				</g>
			</g>
			<g id="group50-18">
				<title>Sheet.50</title>
				<g id="shape35-19">
					<title>Sheet.35</title>
					<desc>Normal Page</desc>
					<rect x="0" y="44.25" width="88.6546" height="237" class="st1"/>
					<text x="15.15" y="55.05" class="st2">Normal Page</text>				</g>
				<g id="shape36-22" transform="translate(15.0773,-171)">
					<title>Sheet.36</title>
					<desc>Start</desc>
					<ellipse cx="30.1546" cy="262.5" rx="30.1546" ry="18.75" class="st3"/>
					<text x="19.6" y="266.1" class="st2">Start</text>				</g>
				<g id="shape37-25" transform="translate(15.0773,-117)">
					<title>Sheet.37</title>
					<desc>Process Step</desc>
					<rect x="0" y="243.75" width="60.3093" height="37.5" class="st3"/>
					<text x="0.42" y="266.1" class="st2">Process Step</text>				</g>
				<g id="shape38-28" transform="translate(15.0773,-60.75)">
					<title>Sheet.38</title>
					<desc>Decission?</desc>
					<path d="M30.15 236.25 L60.31 258.75 L30.15 281.25 L0 258.75 L30.15 236.25 Z" class="st3"/>
					<text x="5.7" y="262.35" class="st2">Decission?</text>				</g>
				<g id="shape39-31" transform="translate(15.0773,-12)">
					<title>Sheet.39</title>
					<desc>End</desc>
					<ellipse cx="30.1546" cy="262.5" rx="30.1546" ry="18.75" class="st3"/>
					<text x="21.26" y="266.1" class="st2">End</text>				</g>
				<g id="shape45-34" transform="translate(36.232,-171.75)">
					<title>Dynamic connector</title>
					<path d="M9 282 L9 298.5" class="st5"/>
				</g>
				<g id="shape46-37" transform="translate(36.232,-120.375)">
					<title>Dynamic connector.46</title>
					<path d="M9 284.63 L9 295.87" class="st5"/>
				</g>
				<g id="shape47-40" transform="translate(36.232,-64.125)">
					<title>Dynamic connector.47</title>
					<path d="M9 284.62 L9 295.88" class="st5"/>
				</g>
			</g>
			<g id="shape51-43" transform="translate(74.1804,-211.5)">
				<title>Striped Arrow</title>
				<path d="M6 274.05 L17.69 274.05 L17.69 266.85 L32.09 281.25 L17.69 295.65 L17.69 288.45 L6 288.45 L6 274.05 ZM2.4
							 274.05 L4.8 274.05 L4.8 288.45 L2.4 288.45 L2.4 274.05 ZM0 274.05 L1.2 274.05 L1.2 288.45 L0 288.45
							 L0 274.05 Z" class="st6"/>
			</g>
		</g>
	</g>
</svg>
