<?xml version="1.0" encoding="UTF-8" standalone="no"?>
<!DOCTYPE svg PUBLIC "-//W3C//DTD SVG 1.1//EN" "http://www.w3.org/Graphics/SVG/1.1/DTD/svg11.dtd">
<!-- Generated by Microsoft Visio, SVG Export export-json-flow.svg lipsum-flow -->
<svg xmlns="http://www.w3.org/2000/svg" xmlns:xlink="http://www.w3.org/1999/xlink" xmlns:ev="http://www.w3.org/2001/xml-events"
		width="2.96875in" height="3.90625in" viewBox="0 0 213.75 281.25" xml:space="preserve" color-interpolation-filters="sRGB"
		class="st2">
	<style type="text/css">
	<![CDATA[
		.st1 {fill:#000000;stroke:none;stroke-linecap:butt;stroke-width:10.3448}
		.st2 {fill:none;fill-rule:evenodd;font-size:12px;overflow:visible;stroke-linecap:square;stroke-miterlimit:3}
	]]>
	</style>

	<g>
		<title>lipsum-flow</title>
		<g id="group11-1" transform="translate(40.6519,-65.25)">
			<title>Sheet.11</title>
			<g id="group12-2">
				<title>Sheet.12</title>
				<g id="shape13-3">
					<title>Sheet.13</title>
					<path d="M122.08 155.42 L118.35 151.68 L92.24 125.57 C92.24 125.57 92.24 125.57 92.24 125.57 L90.12 123.45 C89.15
								 122.48 87.85 121.95 86.48 121.95 L6.76 121.95 C3.5 121.95 0 124.46 0 129.98 L0 229.06 L0 274.49
								 L0 275.76 C0 278.06 2.31 280.29 5.04 281 C5.18 281.04 5.32 281.09 5.46 281.12 C5.89 281.2 6.33 281.25
								 6.76 281.25 L116.83 281.25 C117.27 281.25 117.71 281.2 118.14 281.12 C118.28 281.09 118.42 281.04
								 118.56 281 C121.29 280.29 123.6 278.06 123.6 275.76 L123.6 274.49 L123.6 229.06 L123.6 160.34 C123.6
								 158.23 123.34 156.67 122.08 155.42 ZM90.64 131.74 L113.81 154.91 L90.64 154.91 L90.64 131.74 ZM6.76
								 275.76 C6.57 275.76 6.39 275.69 6.22 275.62 C5.8 275.42 5.49 274.99 5.49 274.49 L5.49 234.56 L118.1
								 234.56 L118.1 274.49 C118.1 274.99 117.8 275.42 117.38 275.62 C117.2 275.69 117.03 275.76 116.83
								 275.76 L6.76 275.76 ZM5.49 229.06 L5.49 129.98 C5.49 129.39 5.58 127.44 6.76 127.44 L85.3 127.44
								 C85.21 127.79 85.15 128.14 85.15 128.51 L85.15 159.79 C83.68 158.48 81.77 157.65 79.65 157.65 C78.13
								 157.65 76.91 158.88 76.91 160.4 C76.91 161.91 78.13 163.15 79.65 163.15 C81.17 163.15 82.4 164.38
								 82.4 165.89 L82.4 176.88 C82.4 180.17 83.89 183.1 86.19 185.12 C83.89 187.13 82.4 190.06 82.4 193.36
								 L82.4 204.34 C82.4 205.86 81.17 207.09 79.65 207.09 C78.13 207.09 76.91 208.32 76.91 209.84 C76.91
								 211.35 78.13 212.58 79.65 212.58 C84.19 212.58 87.89 208.89 87.89 204.34 L87.89 193.36 C87.89 190.33
								 90.36 187.86 93.39 187.86 C94.9 187.86 96.13 186.63 96.13 185.12 C96.13 183.6 94.9 182.37 93.39
								 182.37 C90.36 182.37 87.89 179.91 87.89 176.88 L87.89 165.89 C87.89 163.77 87.07 161.86 85.75 160.4
								 L117.03 160.4 C117.4 160.4 117.76 160.33 118.1 160.24 C118.1 160.28 118.11 160.3 118.11 160.34 L118.11
								 229.06 L5.49 229.06 Z" class="st1"/>
				</g>
				<g id="shape14-5" transform="translate(14.7109,-10.797)">
					<title>Sheet.14</title>
					<path d="M12.35 274 C12.3 275.23 11.88 276.1 11.1 276.61 C10.31 277.12 9.25 277.38 7.92 277.38 C7.4 277.38 6.84
								 277.32 6.23 277.19 C5.63 277.07 5.06 276.92 4.51 276.76 C3.96 276.6 3.45 276.42 2.99 276.24 C2.52
								 276.05 2.16 275.87 1.91 275.69 L0 278.73 C0.5 279.11 1.11 279.45 1.84 279.75 C2.57 280.05 3.32 280.32
								 4.11 280.56 C4.9 280.79 5.66 280.97 6.4 281.08 C7.14 281.19 7.79 281.25 8.34 281.25 C9.44 281.25
								 10.51 281.14 11.55 280.93 C12.59 280.72 13.51 280.34 14.31 279.81 C15.11 279.27 15.75 278.55 16.22
								 277.67 C16.7 276.78 16.94 275.68 16.94 274.38 L16.94 252.83 L12.35 252.83 L12.35 274 Z"
							class="st1"/>
				</g>
				<g id="shape15-7" transform="translate(37.9913,-10.8382)">
					<title>Sheet.15</title>
					<path d="M13.05 267.54 C12.19 266.92 11.25 266.39 10.25 265.95 C9.25 265.51 8.32 265.06 7.47 264.6 C6.62 264.13
								 5.91 263.6 5.33 262.98 C4.75 262.37 4.47 261.56 4.47 260.56 C4.47 260.16 4.57 259.74 4.77 259.3
								 C4.97 258.87 5.24 258.47 5.59 258.12 C5.95 257.77 6.34 257.48 6.8 257.24 C7.25 257 7.72 256.85 8.23
								 256.81 C9.13 256.73 9.87 256.72 10.44 256.77 C11.02 256.82 11.48 256.9 11.83 257.03 C12.18 257.16
								 12.45 257.28 12.64 257.41 C12.83 257.53 13 257.63 13.15 257.71 C13.17 257.68 13.25 257.55 13.37
								 257.33 C13.5 257.1 13.65 256.82 13.82 256.48 C14 256.15 14.19 255.78 14.39 255.4 C14.59 255.01 14.76
								 254.65 14.91 254.32 C14.18 253.85 13.24 253.5 12.06 253.29 C10.88 253.08 9.71 252.97 8.57 252.97
								 C7.44 252.97 6.37 253.15 5.36 253.5 C4.34 253.85 3.46 254.36 2.69 255.02 C1.92 255.68 1.32 256.49
								 0.87 257.44 C0.42 258.4 0.19 259.49 0.19 260.71 C0.19 262.06 0.47 263.19 1.05 264.09 C1.63 264.99
								 2.35 265.77 3.23 266.43 C4.1 267.1 5.04 267.67 6.04 268.16 C7.04 268.65 7.98 269.14 8.84 269.63
								 C9.71 270.12 10.42 270.66 11 271.26 C11.58 271.86 11.86 272.59 11.86 273.44 C11.86 274.84 11.46
								 275.9 10.64 276.61 C9.83 277.32 8.66 277.68 7.13 277.68 C6.63 277.68 6.09 277.63 5.52 277.53 C4.94
								 277.43 4.37 277.3 3.79 277.14 C3.21 276.97 2.66 276.8 2.12 276.61 C1.58 276.42 1.14 276.23 0.79
								 276.03 L0 279.26 C0.43 279.63 0.93 279.95 1.52 280.22 C2.11 280.48 2.73 280.69 3.38 280.84 C4.03
								 280.99 4.68 281.1 5.31 281.16 C5.95 281.22 6.57 281.25 7.17 281.25 C8.58 281.25 9.83 281.04 10.93
								 280.61 C12.03 280.19 12.96 279.62 13.71 278.9 C14.46 278.19 15.04 277.36 15.46 276.43 C15.87 275.49
								 16.08 274.52 16.08 273.52 C16.08 272.04 15.79 270.83 15.21 269.89 C14.64 268.96 13.91 268.17 13.05
								 267.54 Z" class="st1"/>
				</g>
				<g id="shape16-9" transform="translate(58.1955,-10.8025)">
					<title>Sheet.16</title>
					<path d="M19.73 256.54 C18.69 255.37 17.48 254.47 16.09 253.86 C14.7 253.24 13.18 252.94 11.53 252.94 C9.88 252.94
								 8.36 253.24 6.97 253.86 C5.58 254.47 4.36 255.37 3.32 256.54 C2.29 257.72 1.47 259.19 0.88 260.96
								 C0.29 262.72 0 264.77 0 267.09 C0 269.42 0.29 271.47 0.88 273.25 C1.47 275.03 2.29 276.51 3.32 277.68
								 C4.36 278.86 5.58 279.75 6.97 280.35 C8.36 280.95 9.88 281.25 11.53 281.25 C13.18 281.25 14.7 280.95
								 16.09 280.35 C17.48 279.75 18.69 278.86 19.73 277.68 C20.77 276.5 21.59 275.03 22.17 273.25 C22.76
								 271.47 23.06 269.42 23.06 267.09 C23.06 264.77 22.76 262.72 22.17 260.96 C21.59 259.19 20.77 257.72
								 19.73 256.54 ZM17.87 272 C17.5 273.33 16.98 274.42 16.31 275.25 C15.65 276.07 14.9 276.67 14.06
								 277.03 C13.22 277.39 12.34 277.57 11.41 277.57 C10.51 277.57 9.65 277.38 8.84 276.99 C8.03 276.6
								 7.3 275.99 6.66 275.15 C6.03 274.31 5.52 273.23 5.16 271.9 C4.8 270.57 4.6 268.97 4.58 267.09 C4.6
								 265.17 4.8 263.54 5.18 262.21 C5.56 260.89 6.08 259.8 6.74 258.96 C7.4 258.12 8.15 257.53 8.99 257.18
								 C9.83 256.83 10.71 256.66 11.64 256.66 C12.54 256.66 13.4 256.84 14.21 257.22 C15.02 257.6 15.75
								 258.21 16.39 259.06 C17.03 259.91 17.53 260.99 17.89 262.31 C18.25 263.62 18.45 265.22 18.47 267.1
								 C18.45 269.02 18.25 270.66 17.87 272 Z" class="st1"/>
				</g>
				<g id="shape17-11" transform="translate(87.5981,-10.9865)">
					<title>Sheet.17</title>
					<path d="M15.43 272.65 L4.58 253.58 L0 253.58 L0 281.25 L4.58 281.25 L4.58 262.17 L15.43 281.25 L20.01 281.25
								 L20.01 253.58 L15.43 253.58 L15.43 272.65 Z" class="st1"/>
				</g>
				<g id="shape18-13" transform="translate(24.7196,-68.6656)">
					<title>Sheet.18</title>
					<path d="M13.73 245.54 L13.73 234.56 C13.73 233.04 14.96 231.81 16.48 231.81 C18 231.81 19.23 230.58 19.23 229.06
								 C19.23 227.55 18 226.32 16.48 226.32 C11.94 226.32 8.24 230.01 8.24 234.56 L8.24 245.54 C8.24 248.57
								 5.78 251.04 2.75 251.04 C1.23 251.04 0 252.27 0 253.78 C0 255.3 1.23 256.53 2.75 256.53 C5.78 256.53
								 8.24 258.99 8.24 262.02 L8.24 273.01 C8.24 277.55 11.94 281.25 16.48 281.25 C18 281.25 19.23 280.02
								 19.23 278.5 C19.23 276.99 18 275.76 16.48 275.76 C14.96 275.76 13.73 274.52 13.73 273.01 L13.73
								 262.02 C13.73 258.73 12.24 255.8 9.94 253.78 C12.24 251.77 13.73 248.84 13.73 245.54 Z"
							class="st1"/>
				</g>
				<g id="shape19-15" transform="translate(56.3058,-101.625)">
					<title>Sheet.19</title>
					<ellipse cx="4.11994" cy="277.13" rx="4.11994" ry="4.11994" class="st1"/>
				</g>
				<g id="shape20-17" transform="translate(57.6791,-76.9055)">
					<title>Sheet.20</title>
					<path d="M2.75 267.52 C1.23 267.52 0 268.75 0 270.26 L0 278.5 C0 280.02 1.23 281.25 2.75 281.25 C4.27 281.25
								 5.49 280.02 5.49 278.5 L5.49 270.26 C5.49 268.75 4.27 267.52 2.75 267.52 Z" class="st1"/>
				</g>
			</g>
		</g>
	</g>
</svg>
