<?xml version="1.0" encoding="UTF-8" standalone="no"?>
<!DOCTYPE svg PUBLIC "-//W3C//DTD SVG 1.1//EN" "http://www.w3.org/Graphics/SVG/1.1/DTD/svg11.dtd">
<!-- Generated by Microsoft Visio, SVG Export splitpages-flow.svg svg106 -->
<svg xmlns="http://www.w3.org/2000/svg" xmlns:xlink="http://www.w3.org/1999/xlink" xmlns:ev="http://www.w3.org/2001/xml-events"
		width="3.25in" height="4.55208in" viewBox="0 0 234 327.75" xml:space="preserve" color-interpolation-filters="sRGB"
		class="st11">
	<style type="text/css">
	<![CDATA[
		.st1 {fill:#dae8fc;stroke:#6c8ebf;stroke-linecap:butt;stroke-width:0.75}
		.st2 {fill:#000000;font-family:Calibri;font-size:1.16668em}
		.st3 {fill:#ffffcc;stroke:#0080f0;stroke-linecap:butt;stroke-width:1.5}
		.st4 {fill:#ffffcc}
		.st5 {stroke:#0080f0;stroke-linecap:butt;stroke-width:1.5}
		.st6 {fill:#000000;font-family:Calibri;font-size:1.00001em}
		.st7 {fill:#ffffff;stroke:#000000;stroke-linecap:round;stroke-linejoin:round;stroke-width:0.75}
		.st8 {fill:#000000;font-family:Calibri;font-size:0.75em}
		.st9 {marker-end:url(#mrkr13-35);stroke:#0070c0;stroke-linecap:round;stroke-linejoin:round;stroke-width:4.5}
		.st10 {fill:#0070c0;fill-opacity:1;stroke:#0070c0;stroke-opacity:1;stroke-width:0.64102564102564}
		.st11 {fill:none;fill-rule:evenodd;font-size:12px;overflow:visible;stroke-linecap:square;stroke-miterlimit:3}
	]]>
	</style>

	<defs id="Markers">
		<g id="lend13">
			<path d="M 3 1 L 0 0 L 3 -1 L 3 1 " style="stroke:none"/>
		</g>
		<marker id="mrkr13-35" class="st10" refX="-4.68" orient="auto" markerUnits="strokeWidth" overflow="visible">
			<use xlink:href="#lend13" transform="scale(-1.56,-1.56) "/>
		</marker>
	</defs>
	<g>
		<title>svg106</title>
		<g id="shape3-1" transform="translate(45,-213.686)">
			<title>rect8</title>
			<desc>FILE.VSDX</desc>
			<rect x="0" y="233.121" width="144" height="94.6286" class="st1"/>
			<text x="43.76" y="245.72" class="st2">FILE.VSDX</text>		</g>
		<g id="group32-4" transform="translate(59.625,-27)">
			<title>Sheet.32</title>
			<desc>ZIP</desc>
			<g id="shape12-5">
				<title>path38</title>
				<path d="M0 186 L81.97 186 L114.75 214.35 L114.75 327.75 L0 327.75 L0 186 Z" class="st3"/>
			</g>
			<g id="shape13-7" transform="translate(81.9697,-113.4)">
				<title>path40</title>
				<path d="M0 299.4 L0 327.75 L32.78 327.75 L0 299.4 Z" class="st4"/>
				<path d="M0 299.4 L0 327.75 L32.78 327.75" class="st5"/>
			</g>
			<g id="shape32-10">
				<text x="124.49" y="257.82" class="st6">ZIP</text>			</g>
		</g>
		<g id="shape48-12" transform="translate(56.25,-240.75)">
			<title>Sheet.48</title>
			<desc>page1</desc>
			<rect x="0" y="278.25" width="45" height="49.5" class="st7"/>
			<text x="11.34" y="321.05" class="st8">page1</text>		</g>
		<g id="shape50-15" transform="translate(92.25,-229.5)">
			<title>Sheet.50</title>
			<desc>page2</desc>
			<rect x="0" y="278.25" width="45" height="49.5" class="st7"/>
			<text x="11.34" y="321.05" class="st8">page2</text>		</g>
		<g id="shape51-18" transform="translate(130.5,-222.75)">
			<title>Sheet.51</title>
			<desc>page3</desc>
			<rect x="0" y="278.25" width="45" height="49.5" class="st7"/>
			<text x="11.34" y="321.05" class="st8">page3</text>		</g>
		<g id="shape56-21" transform="translate(108,-40.5)">
			<title>Sheet.56</title>
			<desc>Page3.vsdx</desc>
			<rect x="0" y="269.25" width="53.1675" height="58.5" class="st7"/>
			<text x="6.22" y="321.05" class="st8">Page3.vsdx</text>		</g>
		<g id="shape55-24" transform="translate(81,-63)">
			<title>Sheet.55</title>
			<desc>Page2.vsdx</desc>
			<rect x="0" y="269.25" width="53.1675" height="58.5" class="st7"/>
			<text x="6.22" y="321.05" class="st8">Page2.vsdx</text>		</g>
		<g id="shape54-27" transform="translate(67.5,-94.5)">
			<title>Sheet.54</title>
			<desc>Page1.vsdx</desc>
			<rect x="0" y="269.25" width="54" height="58.5" class="st7"/>
			<text x="6.64" y="321.05" class="st8">Page1.vsdx</text>		</g>
		<g id="shape57-30" transform="translate(108,-207)">
			<title>Dynamic connector</title>
			<path d="M9 327.75 L9 338.19" class="st9"/>
		</g>
	</g>
</svg>
