<?xml version="1.0" encoding="UTF-8" standalone="no"?>
<!DOCTYPE svg PUBLIC "-//W3C//DTD SVG 1.1//EN" "http://www.w3.org/Graphics/SVG/1.1/DTD/svg11.dtd">
<!-- Generated by Microsoft Visio, SVG Export translate-flow.svg lipsum-flow -->
<svg xmlns="http://www.w3.org/2000/svg" xmlns:xlink="http://www.w3.org/1999/xlink" xmlns:ev="http://www.w3.org/2001/xml-events"
		width="2.96875in" height="3.90625in" viewBox="0 0 213.75 281.25" xml:space="preserve" color-interpolation-filters="sRGB"
		class="st2">
	<style type="text/css">
	<![CDATA[
		.st1 {fill:#000000;stroke:none;stroke-linecap:butt;stroke-width:11.5385}
		.st2 {fill:none;fill-rule:evenodd;font-size:12px;overflow:visible;stroke-linecap:square;stroke-miterlimit:3}
	]]>
	</style>

	<g>
		<title>lipsum-flow</title>
		<g id="group1-1" transform="translate(30.8077,-70.3198)">
			<title>Sheet.1</title>
			<g id="shape2-2">
				<title>Sheet.2</title>
				<path d="M119.8 177.78 L108.69 177.78 L95.65 212.3 A90.0284 90.0284 0 0 1 62.68 197.15 A89.2833 89.2833 -180 0 0
							 84.75 152.17 L100.92 152.17 A6.20886 6.20886 -180 0 0 100.92 139.75 L59.79 139.75 L59.79 126.03 A6.20886
							 6.20886 -180 0 0 47.37 126.03 L47.37 139.75 L6.21 139.75 A6.20886 6.20886 -180 1 0 6.21 152.17 L22.41
							 152.17 A89.1902 89.1902 -180 0 0 44.46 197.15 A91.6117 91.6117 0 0 1 8.88 212.95 A6.24463 6.24463 -180
							 1 0 10.21 225.37 A4.99813 4.99813 -180 0 0 11.58 225.22 A101.08 101.08 -180 0 0 53.58 205.81 A99.3417
							 99.3417 -180 0 0 91.24 224.13 L69.6 281.25 L85.65 281.25 L94.03 257.16 L134.2 257.16 L142.68 281.25
							 L158.88 281.25 L119.8 177.78 ZM72.3 152.17 A73.7612 73.7612 0 0 1 53.68 188.99 A73.606 73.606 0 0 1
							 35.05 152.17 L72.3 152.17 ZM99.25 242.66 L114.24 199.73 L129.11 242.66 L99.25 242.66 Z" class="st1"/>
			</g>
		</g>
	</g>
</svg>
